<?xml version="1.0" encoding="UTF-8" standalone="no"?>
<!-- Created with Inkscape (http://www.inkscape.org/) -->

<svg
   width="1024"
   height="512"
   viewBox="0 0 1024 512"
   version="1.1"
   id="svg1"
   xml:space="preserve"
   inkscape:version="1.4 (e7c3feb100, 2024-10-09)"
   sodipodi:docname="logo.svg"
   xmlns:inkscape="http://www.inkscape.org/namespaces/inkscape"
   xmlns:sodipodi="http://sodipodi.sourceforge.net/DTD/sodipodi-0.dtd"
   xmlns="http://www.w3.org/2000/svg"
   xmlns:svg="http://www.w3.org/2000/svg"><sodipodi:namedview
     id="namedview1"
     pagecolor="#ffffff"
     bordercolor="#111111"
     borderopacity="1"
     inkscape:showpageshadow="0"
     inkscape:pageopacity="0"
     inkscape:pagecheckerboard="1"
     inkscape:deskcolor="#d1d1d1"
     inkscape:document-units="px"
     showgrid="false"
     inkscape:zoom="0.70640213"
     inkscape:cx="506.79349"
     inkscape:cy="324.17796"
     inkscape:window-width="2133"
     inkscape:window-height="1301"
     inkscape:window-x="0"
     inkscape:window-y="0"
     inkscape:window-maximized="1"
     inkscape:current-layer="layer1"><inkscape:grid
       id="grid8"
       units="px"
       originx="0"
       originy="0"
       spacingx="1"
       spacingy="1"
       empcolor="#0099e5"
       empopacity="0.30196078"
       color="#0099e5"
       opacity="0.14901961"
       empspacing="5"
       enabled="true"
       visible="false" /></sodipodi:namedview><defs
     id="defs1"><rect
       x="9.9236057"
       y="12.404507"
       width="999.80325"
       height="126.52598"
       id="rect3" /><rect
       x="220.80023"
       y="173.6631"
       width="553.24102"
       height="133.96868"
       id="rect2" /><rect
       x="205.32105"
       y="118.32625"
       width="245.65197"
       height="84.328288"
       id="rect1" /></defs><g
     inkscape:label="Layer 1"
     inkscape:groupmode="layer"
     id="layer1"><text
       xml:space="preserve"
       id="text2"
       style="font-weight:bold;font-size:96px;font-family:'Comic Sans MS';-inkscape-font-specification:'Comic Sans MS Bold';text-align:start;writing-mode:lr-tb;direction:ltr;white-space:pre;shape-inside:url(#rect3);fill:#ff0000;fill-opacity:1;stroke:none;stroke-width:100;stroke-dasharray:400, 100;stroke-dashoffset:430"
       x="405.1875"
       y="0"
       transform="translate(7.574823,182.75755)"><tspan
         x="20.224884"
         y="98.250451"
         id="tspan11"><tspan
           style="fill:#a9a1e1"
           id="tspan1">some</tspan><tspan
           style="fill:#bbc2cf"
           id="tspan2">::</tspan><tspan
           style="fill:#a9a1e1"
           id="tspan8">type</tspan><tspan
           style="font-family:'Maple Mono NF';-inkscape-font-specification:'Maple Mono NF Bold';text-align:center;text-anchor:middle"
           id="tspan9"> </tspan><tspan
           style="fill:#bbc2cf"
           id="tspan10">value;</tspan></tspan></text><path
       style="fill:none;fill-opacity:1;stroke:#df5c4e;stroke-width:5;stroke-dasharray:none;stroke-dashoffset:21.5;stroke-opacity:1"
       d="M 29.047439,254.24191 H 400.88658"
       id="path8" /><g
       id="g8"
       transform="matrix(0.71648772,0,0,0.71648772,276.3125,-72.322733)"><path
         style="fill:#df5c4e"
         d="m 193,215.7 c -0.8,-0.8 -0.8,-2 0,-2.8 0.8,-0.8 2,-0.8 2.8,0 l 150,150 140,-140 c 9.2,-9.2 14.4,-21.6 14.4,-35.2 0,-13.6 -5.2,-25.6 -14.4,-35.2 L 379.8,46.9 C 370.6,37.7 358.2,32.5 344.6,32.5 331,32.5 319,37.7 309.4,46.9 L 20.2,335.7 C 1,355.3 1,386.9 20.2,406.1 l 67.6,67.6 H 235.4 L 343,366.1 Z"
         id="path1" /><path
         style="fill:#33a5d2"
         d="m 193,215.7 c -0.8,-0.8 -0.8,-2 0,-2.8 0.8,-0.8 2,-0.8 2.8,0 l 150,150 140,-140 c 9.2,-9.2 14.4,-21.6 14.4,-35.2 0,-13.6 -5.2,-25.6 -14.4,-35.2 L 379.8,46.9 C 370.6,37.7 358.2,32.5 344.6,32.5 331,32.5 319,37.7 309.4,46.9 l -142.8,142.8 176,176 z"
         id="path2" /><path
         d="M 236.2,479.7 H 86.6 c -1.2,0 -2,-0.4 -2.8,-1.2 l -67.6,-68 c -21.6,-21.6 -21.6,-57.2 0,-78.8 l 2.8,2.8 -2.8,-2.8 289.2,-289.2 c 21.6,-21.6 56.8,-21.6 78.4,0 l 106,106 c 21.6,21.6 21.6,57.2 0,78.8 L 239,478.5 c -0.8,0.8 -1.6,1.2 -2.8,1.2 z m -148,-8 h 146.4 l 249.6,-250 c 8.8,-8.8 14,-20.8 14,-33.6 0,-12.8 -4.8,-24.8 -14,-33.6 l -106,-106 C 359.8,30.1 329.4,30.1 311,48.5 L 21.8,337.7 c -18.4,18.4 -18.4,49.2 0,67.6 z"
         id="path5" /><path
         d="M 235.66751,479.7 H 87.152393 C 85.860957,479.7 85,478.1 85,475.7 c 0,-2.4 0.860957,-4 2.152393,-4 H 235.66751 c 1.29144,0 2.1524,1.6 2.1524,4 0,2.4 -0.86096,4 -2.1524,4 z"
         id="path6"
         style="stroke-width:0.733552" /><path
         d="m 344.39076,368.9 c -1.38278,0 -2.30463,-0.46108 -3.22647,-1.38323 L 167.3958,194.15136 c -1.8437,-1.84432 -1.8437,-4.61079 0,-6.4551 1.8437,-1.84431 4.60924,-1.84431 6.45294,0 l 173.76849,173.36541 c 1.84369,1.84431 1.84369,4.61078 0,6.4551 -0.92185,0.92215 -1.8437,1.38323 -3.22647,1.38323 z"
         id="path7"
         style="stroke-width:1.1525" /></g></g></svg>
